HIERARCHY
ROOT Hips
{
	OFFSET 0.000000 0.000000 0.000000
	CHANNELS 6 Xposition Yposition Zposition Zrotation Yrotation Xrotation 
	JOINT LHipJoint
	{
		OFFSET 0.000000 0.000000 0.000000
		CHANNELS 3 Zrotation Yrotation Xrotation
		JOINT LeftUpLeg
		{
			OFFSET 1.363060 -1.794630 0.839290
			CHANNELS 3 Zrotation Yrotation Xrotation
			JOINT LeftLeg
			{
				OFFSET 2.448110 -6.726130 0.000000
				CHANNELS 3 Zrotation Yrotation Xrotation
				JOINT LeftFoot
				{
					OFFSET 2.562200 -7.039590 0.000000
					CHANNELS 3 Zrotation Yrotation Xrotation
					JOINT LeftToeBase
					{
						OFFSET 0.157640 -0.433110 2.322550
						CHANNELS 3 Zrotation Yrotation Xrotation
						End Site
						{
							OFFSET 0.000000 0.000000 0.000000
						}
					}
				}
			}
		}
	}
	JOINT RHipJoint
	{
		OFFSET 0.000000 0.000000 0.000000
		CHANNELS 3 Zrotation Yrotation Xrotation
		JOINT RightUpLeg
		{
			OFFSET -1.305520 -1.794630 0.839290
			CHANNELS 3 Zrotation Yrotation Xrotation
			JOINT RightLeg
			{
				OFFSET -2.542530 -6.985550 0.000000
				CHANNELS 3 Zrotation Yrotation Xrotation
				JOINT RightFoot
				{
					OFFSET -2.568260 -7.056230 0.000000
					CHANNELS 3 Zrotation Yrotation Xrotation
					JOINT RightToeBase
					{
						OFFSET -0.164730 -0.452590 2.363150
						CHANNELS 3 Zrotation Yrotation Xrotation
						End Site
						{
							OFFSET 0.000000 0.000000 0.000000
						}
					}
				}
			}
		}
	}
	JOINT LowerBack
	{
		OFFSET 0.000000 0.000000 0.000000
		CHANNELS 3 Zrotation Yrotation Xrotation
		JOINT Spine
		{
			OFFSET 0.028270 2.035590 -0.193380
			CHANNELS 3 Zrotation Yrotation Xrotation
			JOINT Spine1
			{
				OFFSET 0.056720 2.048850 -0.042750
				CHANNELS 3 Zrotation Yrotation Xrotation
				JOINT Neck
				{
					OFFSET 0.000000 0.000000 0.000000
					CHANNELS 3 Zrotation Yrotation Xrotation
					JOINT Neck1
					{
						OFFSET -0.054170 1.746240 0.172020
						CHANNELS 3 Zrotation Yrotation Xrotation
						JOINT Head
						{
							OFFSET 0.104070 1.761360 -0.123970
							CHANNELS 3 Zrotation Yrotation Xrotation
							End Site
							{
								OFFSET 0.000000 0.000000 0.000000
							}
						}
					}
				}
				JOINT LeftShoulder
				{
					OFFSET 0.000000 0.000000 0.000000
					CHANNELS 3 Zrotation Yrotation Xrotation
					JOINT LeftArm
					{
						OFFSET 3.362410 1.200890 -0.311210
						CHANNELS 3 Zrotation Yrotation Xrotation
						JOINT LeftForeArm
						{
							OFFSET 4.983000 -0.000000 -0.000000
							CHANNELS 3 Zrotation Yrotation Xrotation
							JOINT LeftHand
							{
								OFFSET 3.483560 -0.000000 -0.000000
								CHANNELS 3 Zrotation Yrotation Xrotation
								JOINT LeftFingerBase
								{
									OFFSET 0.000000 0.000000 0.000000
									CHANNELS 3 Zrotation Yrotation Xrotation
									JOINT LeftHandIndex1
									{
										OFFSET 0.715260 -0.000000 -0.000000
										CHANNELS 3 Zrotation Yrotation Xrotation
										End Site
										{
											OFFSET 0.000000 0.000000 0.000000
										}
									}
								}
								JOINT LThumb
								{
									OFFSET 0.000000 0.000000 0.000000
									CHANNELS 3 Zrotation Yrotation Xrotation
									End Site
									{
										OFFSET 0.000000 0.000000 0.000000
									}
								}
							}
						}
					}
				}
				JOINT RightShoulder
				{
					OFFSET 0.000000 0.000000 0.000000
					CHANNELS 3 Zrotation Yrotation Xrotation
					JOINT RightArm
					{
						OFFSET -3.136600 1.374050 -0.404650
						CHANNELS 3 Zrotation Yrotation Xrotation
						JOINT RightForeArm
						{
							OFFSET -5.241900 -0.000000 -0.000000
							CHANNELS 3 Zrotation Yrotation Xrotation
							JOINT RightHand
							{
								OFFSET -3.444170 -0.000000 -0.000000
								CHANNELS 3 Zrotation Yrotation Xrotation
								JOINT RightFingerBase
								{
									OFFSET 0.000000 0.000000 0.000000
									CHANNELS 3 Zrotation Yrotation Xrotation
									JOINT RightHandIndex1
									{
										OFFSET -0.622530 -0.000000 -0.000000
										CHANNELS 3 Zrotation Yrotation Xrotation
										End Site
										{
											OFFSET 0.000000 0.000000 0.000000
										}
									}
								}
								JOINT RThumb
								{
									OFFSET 0.000000 0.000000 0.000000
									CHANNELS 3 Zrotation Yrotation Xrotation
									End Site
									{
										OFFSET 0.000000 0.000000 0.000000
									}
								}
							}
						}
					}
				}
			}
		}
	}
}
MOTION
Frames: 11
Frame Time: 0.008333
0.760005 17.837566 -15.666554 -1.649563 -2.785625 6.530032 2.842841 2.752432 1.214636 -18.271759 -9.879637 -10.798571 1.018321 7.087306 22.296483 -1.172166 7.406719 -6.401705 0.013800 -0.759200 -2.086500 -5.033524 -3.421363 0.546366 25.407007 10.487238 -8.088344 -1.709320 -6.289050 20.436305 0.702208 -5.645532 -5.645982 -0.177800 -2.716100 7.489200 1.132831 0.714716 2.662140 1.495050 0.571941 -1.406124 3.288688 0.739071 -3.625129 -9.203277 -4.059880 -11.856312 4.634873 -4.249470 13.917061 3.353900 -2.430400 9.115500 -7.069620 3.556797 -2.308078 -84.589935 5.191339 15.796946 13.176070 -23.839797 -3.296041 -1.150362 -2.304955 4.696819 20.925527 15.262099 6.974100 -7.125000 0.000000 0.000000 -5.963000 48.876600 -0.572000 5.402979 -2.636805 -2.145744 81.543659 -3.754745 15.584781 -16.383543 24.429943 -4.472371 0.714670 -0.433834 4.863225 -11.517793 12.535587 -2.774700 7.125000 0.000000 0.000000 10.376400 -16.941200 7.019500 
0.760407 17.834251 -15.669367 -1.651136 -2.793448 6.466967 2.843454 2.754367 1.214611 -18.276128 -9.942406 -10.707349 1.013828 7.075167 22.265576 -1.187764 7.478870 -6.419205 0.010800 -0.670600 -1.842900 -5.031993 -3.421548 0.543430 25.415465 10.462430 -8.067985 -1.716651 -6.306085 20.488861 0.705717 -5.657347 -5.593581 -0.181600 -2.744500 7.568200 1.160435 0.717838 2.723715 1.478938 0.580548 -1.385345 3.236676 0.740937 -3.613342 -9.112766 -4.091531 -11.853366 4.595191 -4.310277 13.855778 3.314800 -2.453600 9.092300 -7.073969 3.550901 -2.303639 -84.543784 5.130213 15.853132 13.150601 -23.802037 -3.289872 -1.187462 -2.251857 4.620545 21.173094 14.499877 6.763300 -7.125000 0.000000 0.000000 -5.486200 48.062400 -0.415700 5.411123 -2.636799 -2.139949 81.586291 -3.668276 15.470176 -16.311694 24.328652 -4.431613 0.715382 -0.466093 4.971058 -11.527642 12.859764 -2.852900 7.125000 0.000000 0.000000 10.359500 -16.584700 7.089500 
0.760005 17.833548 -15.674993 -1.689995 -2.793419 6.484579 2.843731 2.754263 1.212482 -18.230585 -9.904892 -10.771441 1.006850 7.062260 22.218136 -1.200691 7.523697 -6.324229 0.018500 -0.879200 -2.416600 -5.033224 -3.420102 0.549189 25.456594 10.512931 -8.141611 -1.724397 -6.329813 20.552807 0.707757 -5.670789 -5.582652 -0.179600 -2.730000 7.528000 1.221811 0.730938 2.742954 1.472342 0.602169 -1.387766 3.188745 0.750068 -3.632329 -9.120745 -4.096294 -11.793545 4.649181 -4.325060 13.842720 3.337900 -2.456600 9.078100 -7.084747 3.549172 -2.297308 -84.508026 5.017601 15.878069 13.074789 -23.678164 -3.253157 -1.201518 -2.225256 4.698798 21.187851 14.173896 6.637100 -7.125000 0.000000 0.000000 -5.379700 47.696000 -0.358800 5.413681 -2.630950 -2.136730 81.627344 -3.629344 15.264283 -16.283146 24.289452 -4.413878 0.716677 -0.492955 5.123875 -11.564529 13.132529 -2.925800 7.125000 0.000000 0.000000 10.325500 -16.284200 7.134000 
0.758297 17.835256 -15.675997 -1.498543 -2.817792 6.483055 2.845267 2.753911 1.212810 -18.442393 -9.861862 -10.736500 1.006048 7.056635 22.212390 -1.190124 7.480077 -6.351876 0.019200 -0.893900 -2.456800 -5.027437 -3.418861 0.549139 25.241062 10.524453 -8.159114 -1.725273 -6.331239 20.551897 0.700092 -5.636824 -5.628194 -0.174300 -2.689700 7.415900 0.988454 0.736510 2.755950 1.441121 0.600976 -1.406811 3.242554 0.753425 -3.681861 -9.109840 -4.084370 -11.766955 4.676904 -4.317475 13.877661 3.346000 -2.450900 9.086400 -7.093011 3.547922 -2.293121 -84.464783 4.951800 15.846347 12.978733 -23.526119 -3.204401 -1.211009 -2.210926 4.716595 21.198759 13.996506 6.569900 -7.125000 0.000000 0.000000 -5.317300 47.496700 -0.328500 5.407190 -2.628787 -2.142405 81.634630 -3.713222 15.304309 -16.346788 24.377606 -4.449959 0.711895 -0.473379 4.960694 -11.482967 12.963407 -2.865000 7.125000 0.000000 0.000000 10.389900 -16.476200 7.136000 
0.756991 17.837064 -15.676198 -1.448290 -2.862519 6.465208 2.845128 2.754606 1.214361 -18.498530 -9.841289 -10.707629 1.009540 7.061413 22.232351 -1.190837 7.485976 -6.372965 0.018300 -0.874300 -2.403000 -5.026822 -3.418004 0.548755 25.183790 10.556461 -8.108863 -1.720317 -6.316835 20.511910 0.696522 -5.619175 -5.656600 -0.178000 -2.717600 7.493500 0.912223 0.741671 2.823980 1.436970 0.607112 -1.421902 3.276835 0.759505 -3.748401 -9.110045 -4.075134 -11.857527 4.674601 -4.297491 13.904458 3.344900 -2.441100 9.118200 -7.087028 3.544676 -2.301407 -84.437020 5.030155 15.990273 13.011192 -23.578553 -3.217078 -1.198694 -2.239365 4.585454 21.205782 14.334792 6.709900 -7.125000 0.000000 0.000000 -5.401100 47.881000 -0.385000 5.403441 -2.625977 -2.146843 81.627623 -3.735360 15.388630 -16.391795 24.431791 -4.472390 0.717883 -0.443379 4.836710 -11.559382 12.652089 -2.812000 7.125000 0.000000 0.000000 10.342600 -16.812100 7.025400 
0.756087 17.838169 -15.675897 -1.634211 -2.847703 6.487911 2.843536 2.755940 1.215896 -18.286688 -9.803822 -10.783368 1.011938 7.069536 22.245183 -1.198143 7.509014 -6.304385 0.023400 -0.986700 -2.712300 -5.032804 -3.418887 0.552505 25.403288 10.587675 -8.072230 -1.712670 -6.298272 20.462462 0.707904 -5.682560 -5.661047 -0.185900 -2.776800 7.657900 1.107571 0.718205 2.853370 1.464285 0.584990 -1.436955 3.230185 0.747544 -3.790853 -9.050022 -4.078953 -11.941889 4.650181 -4.308918 13.926148 3.321700 -2.443600 9.145500 -7.081223 3.540209 -2.306754 -84.420026 5.079672 16.057217 13.032086 -23.609752 -3.221806 -1.208594 -2.250492 4.609442 21.360672 14.476876 6.824400 -7.125000 0.000000 0.000000 -5.280800 48.068800 -0.400900 5.408254 -2.626229 -2.149482 81.647422 -3.730067 15.411115 -16.390144 24.425141 -4.472273 0.712348 -0.426422 4.909320 -11.521721 12.429916 -2.751100 7.125000 0.000000 0.000000 10.378100 -17.054600 6.994500 
0.755886 17.837767 -15.674490 -1.721862 -2.844354 6.443150 2.842036 2.759246 1.219708 -18.188734 -9.781725 -10.756494 1.017929 7.080224 22.279609 -1.195237 7.494468 -6.305775 0.018900 -0.886800 -2.437300 -5.035668 -3.419505 0.549694 25.518685 10.579649 -7.961443 -1.704221 -6.272532 20.397364 0.715549 -5.719706 -5.652334 -0.188900 -2.799100 7.720000 1.203544 0.696918 2.943041 1.482758 0.564970 -1.447642 3.217614 0.737841 -3.863088 -9.034921 -4.115398 -11.903127 4.614878 -4.362614 13.943103 3.298900 -2.472000 9.149800 -7.078474 3.539275 -2.308889 -84.422821 5.133430 16.066951 13.045354 -23.630100 -3.229168 -1.204532 -2.252789 4.599289 21.330871 14.508423 6.826000 -7.125000 0.000000 0.000000 -5.320600 48.099100 -0.407900 5.408842 -2.626522 -2.151065 81.614965 -3.798039 15.518908 -16.378404 24.412613 -4.470157 0.700805 -0.423780 4.860396 -11.364130 12.398481 -2.705400 7.125000 0.000000 0.000000 10.495500 -17.097100 7.066400 
0.755082 17.837466 -15.674993 -1.716968 -2.895807 6.427766 2.842612 2.760024 1.220845 -18.186808 -9.798104 -10.730965 1.018009 7.080343 22.282844 -1.192763 7.492256 -6.370399 0.016000 -0.817500 -2.246900 -5.035669 -3.417861 0.550590 25.516564 10.631314 -7.925734 -1.702226 -6.266193 20.379276 0.723080 -5.753286 -5.598478 -0.179200 -2.726600 7.518400 1.200772 0.719199 2.970251 1.472270 0.596663 -1.457399 3.192786 0.753831 -3.908628 -8.997175 -4.133571 -11.796726 4.595496 -4.401450 13.890291 3.282000 -2.489700 9.109600 -7.081183 3.539588 -2.304600 -84.375792 5.099073 16.059604 12.999618 -23.557565 -3.207977 -1.184791 -2.260018 4.594159 21.115719 14.630820 6.796100 -7.125000 0.000000 0.000000 -5.575500 48.199000 -0.441300 5.402049 -2.628273 -2.154282 81.658249 -3.933019 15.541349 -16.428982 24.487581 -4.499422 0.699469 -0.432815 4.836221 -11.336671 12.537382 -2.729700 7.125000 0.000000 0.000000 10.511400 -16.950300 7.111800 
0.755685 17.837265 -15.676600 -1.716694 -2.889644 6.466761 2.841805 2.758678 1.220790 -18.180784 -9.791366 -10.777332 1.014153 7.074864 22.262887 -1.181061 7.440776 -6.380902 0.016400 -0.826900 -2.272700 -5.036719 -3.417698 0.556045 25.507380 10.653529 -8.006309 -1.708571 -6.285503 20.430727 0.717063 -5.723578 -5.609096 -0.175600 -2.699300 7.442800 1.198860 0.708749 2.940363 1.479254 0.581105 -1.476657 3.207832 0.748190 -3.938586 -8.981524 -4.141913 -11.701122 4.540896 -4.418122 13.873868 3.257300 -2.503200 9.081300 -7.084845 3.540138 -2.301813 -84.395706 5.089429 16.013045 12.954660 -23.482113 -3.178886 -1.197843 -2.263792 4.704329 21.224827 14.705792 6.867300 -7.125000 0.000000 0.000000 -5.482400 48.302900 -0.448000 5.403618 -2.631882 -2.156006 81.657196 -4.000969 15.510506 -16.411724 24.460915 -4.484311 0.721185 -0.445492 4.957500 -11.624618 12.665494 -2.831200 7.125000 0.000000 0.000000 10.294500 -16.794100 6.995700 
0.755585 17.836562 -15.677504 -1.629001 -2.900146 6.482767 2.842015 2.755790 1.216939 -18.285163 -9.858086 -10.767177 1.010551 7.069352 22.243818 -1.208050 7.570521 -6.414283 0.023800 -0.996900 -2.740200 -5.034899 -3.417466 0.554301 25.405598 10.622369 -8.079707 -1.717683 -6.311237 20.500680 0.708790 -5.693469 -5.687815 -0.157600 -2.557900 7.050300 1.101788 0.696144 2.881450 1.478801 0.556711 -1.445350 3.265022 0.734876 -3.833329 -9.071961 -4.177387 -11.720739 4.578330 -4.444752 13.805608 3.284800 -2.516000 9.063100 -7.089673 3.542325 -2.297553 -84.452650 5.004733 16.007851 12.966879 -23.498853 -3.184015 -1.207842 -2.257721 4.831597 21.287595 14.659191 6.871300 -7.125000 0.000000 0.000000 -5.405700 48.261000 -0.436100 5.412357 -2.626822 -2.146456 81.607031 -3.814326 15.489044 -16.322944 24.330991 -4.429974 0.739890 -0.456910 5.070692 -11.871275 12.739591 -2.911800 7.125000 0.000000 0.000000 10.109600 -16.695400 6.888100 
0.755987 17.832543 -15.678810 -1.648533 -2.907881 6.457477 2.841025 2.756976 1.218523 -18.262879 -9.886347 -10.748743 1.012531 7.073179 22.254336 -1.217692 7.610476 -6.389476 0.022200 -0.961900 -2.643800 -5.034915 -3.419641 0.552094 25.415339 10.539889 -8.095127 -1.721332 -6.319143 20.527555 0.693622 -5.597904 -5.649522 -0.179400 -2.728600 7.523900 1.119915 0.675900 2.908961 1.489105 0.531439 -1.446735 3.278795 0.723160 -3.850383 -9.039312 -4.153190 -11.695848 4.549456 -4.416240 13.742807 3.270700 -2.501900 9.029200 -7.083711 3.540955 -2.300685 -84.468839 5.045398 16.042079 13.023219 -23.587810 -3.210771 -1.193106 -2.280256 4.773381 21.237141 14.947724 6.968600 -7.125000 0.000000 0.000000 -5.540800 48.577800 -0.490400 5.414673 -2.627409 -2.144918 81.579427 -3.810079 15.528166 -16.292868 24.290425 -4.414493 0.737790 -0.465357 5.149258 -11.853383 12.808144 -2.923900 7.125000 0.000000 0.000000 10.121200 -16.620000 6.913200 
